<svg id="svg" version="1.1" xmlns="http://www.w3.org/2000/svg" xmlns:xlink="http://www.w3.org/1999/xlink" width="400" height="263.1578947368421" viewBox="0, 0, 400,263.1578947368421"><g id="svgg"><path id="path0" d="M136.316 5.000 L 136.316 10.000 120.526 10.000 L 104.737 10.000 104.737 15.263 L 104.737 20.526 99.474 20.526 L 94.211 20.526 94.211 25.789 L 94.211 31.053 88.947 31.053 L 83.684 31.053 83.684 36.316 L 83.684 41.579 78.421 41.579 L 73.158 41.579 73.158 52.105 L 73.158 62.632 67.895 62.632 L 62.632 62.632 62.632 73.158 L 62.632 83.684 57.368 83.684 L 52.105 83.684 52.105 94.211 L 52.105 104.737 41.579 104.737 L 31.053 104.737 31.053 110.000 L 31.053 115.263 25.789 115.263 L 20.526 115.263 20.526 120.526 L 20.526 125.789 15.263 125.789 L 10.000 125.789 10.000 141.579 L 10.000 157.368 5.000 157.368 L 0.000 157.368 0.000 184.211 L 0.000 211.053 5.000 211.053 L 10.000 211.053 10.000 221.579 L 10.000 232.105 15.263 232.105 L 20.526 232.105 20.526 237.368 L 20.526 242.632 25.789 242.632 L 31.053 242.632 31.053 247.895 L 31.053 253.158 41.579 253.158 L 52.105 253.158 52.105 258.158 L 52.105 263.158 200.000 263.158 L 347.895 263.158 347.895 258.158 L 347.895 253.158 358.421 253.158 L 368.947 253.158 368.947 247.895 L 368.947 242.632 374.211 242.632 L 379.474 242.632 379.474 237.368 L 379.474 232.105 384.737 232.105 L 390.000 232.105 390.000 221.579 L 390.000 211.053 395.000 211.053 L 400.000 211.053 400.000 178.947 L 400.000 146.842 395.000 146.842 L 390.000 146.842 390.000 141.579 L 390.000 136.316 384.737 136.316 L 379.474 136.316 379.474 131.053 L 379.474 125.789 374.211 125.789 L 368.947 125.789 368.947 120.526 L 368.947 115.263 363.684 115.263 L 358.421 115.263 358.421 110.000 L 358.421 104.737 347.895 104.737 L 337.368 104.737 337.368 88.947 L 337.368 73.158 332.237 73.158 L 327.105 73.158 327.105 67.895 L 327.105 62.632 321.842 62.632 L 316.579 62.632 316.579 57.368 L 316.579 52.105 305.921 52.105 L 295.263 52.105 295.263 46.842 L 295.263 41.579 268.947 41.579 L 242.632 41.579 242.632 36.316 L 242.632 31.053 237.368 31.053 L 232.105 31.053 232.105 25.789 L 232.105 20.526 226.842 20.526 L 221.579 20.526 221.579 15.263 L 221.579 10.000 211.053 10.000 L 200.526 10.000 200.526 5.000 L 200.526 0.000 168.421 0.000 L 136.316 0.000 136.316 5.000 M178.909 10.875 C 179.090 11.093,179.225 13.040,179.270 16.072 L 179.342 20.921 194.712 20.989 C 205.379 21.036,210.189 21.145,210.430 21.345 C 210.691 21.561,210.796 22.866,210.850 26.541 L 210.921 31.447 221.250 31.516 C 226.931 31.554,231.605 31.613,231.637 31.648 C 231.669 31.682,231.758 36.388,231.834 42.105 L 231.974 52.500 257.869 52.567 C 276.218 52.615,283.867 52.719,284.114 52.924 C 284.375 53.141,284.480 54.438,284.534 58.120 L 284.605 63.026 300.197 63.094 C 308.773 63.132,315.816 63.191,315.848 63.226 C 315.880 63.261,315.968 67.967,316.045 73.684 L 316.184 84.079 321.033 84.151 C 324.066 84.196,326.012 84.331,326.230 84.512 C 326.851 85.027,326.729 104.519,326.101 105.088 C 325.679 105.470,324.468 105.528,315.641 105.589 L 305.658 105.658 305.586 110.425 C 305.492 116.722,306.829 116.031,294.588 116.115 L 284.605 116.184 284.534 120.951 C 284.439 127.249,285.776 126.557,273.535 126.642 L 263.553 126.711 263.481 131.478 C 263.386 137.775,264.724 137.083,252.483 137.168 L 242.500 137.237 242.428 142.004 C 242.337 148.092,242.836 147.597,236.697 147.691 L 231.974 147.763 231.902 152.530 C 231.808 158.828,233.145 158.136,220.904 158.220 L 210.921 158.289 210.849 163.057 C 210.755 169.354,212.092 168.662,199.851 168.747 L 189.868 168.816 189.796 173.539 C 189.703 179.678,190.197 179.179,184.109 179.271 L 179.342 179.342 179.270 184.065 C 179.176 190.204,179.671 189.705,173.583 189.797 L 168.816 189.868 168.747 199.851 C 168.662 212.108,169.337 210.789,163.149 210.789 C 157.420 210.789,157.925 211.317,157.835 205.244 L 157.763 200.395 152.856 200.323 C 149.191 200.270,147.877 200.164,147.662 199.905 C 147.468 199.671,147.352 196.276,147.306 189.451 L 147.237 179.342 142.330 179.271 C 138.665 179.217,137.351 179.111,137.136 178.853 C 136.942 178.619,136.826 175.223,136.779 168.398 L 136.711 158.289 131.804 158.218 C 128.139 158.165,126.824 158.059,126.610 157.800 C 126.415 157.566,126.300 154.171,126.253 147.345 L 126.184 137.237 121.335 137.165 C 115.272 137.075,115.817 137.614,115.729 131.617 L 115.658 126.711 105.549 126.642 C 98.724 126.595,95.329 126.479,95.095 126.285 C 94.836 126.070,94.730 124.756,94.677 121.091 L 94.605 116.184 84.271 116.115 L 73.936 116.047 74.007 121.115 L 74.079 126.184 78.928 126.256 C 84.991 126.346,84.446 125.807,84.534 131.804 L 84.605 136.711 94.714 136.779 C 101.539 136.826,104.935 136.942,105.169 137.136 C 105.427 137.351,105.533 138.665,105.586 142.330 L 105.658 147.237 110.565 147.308 C 114.230 147.362,115.544 147.467,115.759 147.726 C 115.953 147.960,116.069 151.356,116.115 158.181 L 116.184 168.289 121.091 168.361 C 124.756 168.414,126.070 168.520,126.285 168.779 C 126.479 169.013,126.595 172.408,126.642 179.234 L 126.711 189.342 131.617 189.414 C 135.282 189.467,136.597 189.573,136.811 189.831 C 137.006 190.065,137.121 193.461,137.168 200.286 L 137.237 210.395 142.086 210.467 C 148.149 210.557,147.604 210.017,147.692 216.014 L 147.763 220.921 152.612 220.993 C 158.675 221.083,158.131 220.544,158.218 226.541 L 158.289 231.447 163.138 231.519 C 169.202 231.609,168.657 231.070,168.744 237.067 L 168.816 241.974 173.665 242.046 C 176.697 242.091,178.644 242.226,178.862 242.407 C 179.434 242.881,179.356 251.771,178.775 252.413 C 178.312 252.925,53.767 253.190,52.967 252.682 C 52.734 252.534,52.623 251.075,52.572 247.488 L 52.500 242.500 47.651 242.428 C 41.588 242.338,42.133 242.877,42.045 236.880 L 41.974 231.974 37.125 231.902 C 31.061 231.812,31.606 232.351,31.519 226.354 L 31.447 221.447 26.541 221.376 C 22.876 221.322,21.561 221.217,21.346 220.958 C 21.152 220.724,21.037 217.329,20.990 210.503 L 20.921 200.395 16.072 200.323 C 13.040 200.278,11.093 200.143,10.875 199.962 C 10.389 199.558,10.357 169.222,10.842 168.737 C 11.064 168.515,12.538 168.421,15.789 168.421 C 19.041 168.421,20.515 168.327,20.737 168.105 C 20.975 167.867,21.053 164.070,21.053 152.632 C 21.053 141.193,21.130 137.396,21.368 137.158 C 21.590 136.936,23.064 136.842,26.316 136.842 C 32.070 136.842,31.579 137.333,31.579 131.579 C 31.579 125.825,31.088 126.316,36.842 126.316 C 42.597 126.316,42.105 126.810,42.105 121.032 C 42.105 117.460,42.187 116.312,42.459 116.087 C 42.707 115.881,47.363 115.774,58.182 115.726 L 73.553 115.658 73.553 110.658 L 73.553 105.658 68.704 105.586 C 62.623 105.496,63.158 106.020,63.158 100.152 C 63.158 94.223,62.658 94.737,68.421 94.737 C 71.673 94.737,73.147 94.643,73.368 94.421 C 73.603 94.187,73.684 91.556,73.684 84.211 C 73.684 76.865,73.766 74.234,74.000 74.000 C 74.222 73.778,75.696 73.684,78.947 73.684 C 82.199 73.684,83.673 73.590,83.895 73.368 C 84.129 73.134,84.211 70.503,84.211 63.158 C 84.211 55.813,84.292 53.182,84.526 52.947 C 84.748 52.726,86.222 52.632,89.474 52.632 C 95.228 52.632,94.737 53.122,94.737 47.368 C 94.737 41.614,94.246 42.105,100.000 42.105 C 105.754 42.105,105.263 42.596,105.263 36.842 C 105.263 31.088,104.772 31.579,110.526 31.579 C 116.282 31.579,115.789 32.073,115.789 26.295 C 115.789 22.724,115.872 21.575,116.143 21.350 C 116.392 21.144,121.047 21.037,131.866 20.989 L 147.237 20.921 147.309 16.072 C 147.354 13.040,147.489 11.093,147.670 10.875 C 148.097 10.360,178.482 10.360,178.909 10.875 M147.692 26.376 L 147.763 31.447 152.763 31.447 L 157.763 31.447 157.763 26.447 L 157.763 21.447 152.692 21.376 L 147.620 21.304 147.692 26.376 M158.221 42.165 L 158.289 52.500 163.289 52.500 L 168.289 52.500 168.289 42.237 L 168.289 31.974 163.221 31.902 L 158.152 31.831 158.221 42.165 M168.744 57.955 L 168.816 63.026 173.816 63.026 L 178.816 63.026 178.816 58.026 L 178.816 53.026 173.744 52.955 L 168.673 52.883 168.744 57.955 M200.381 53.230 C 200.309 53.417,200.283 55.698,200.323 58.298 L 200.395 63.026 215.628 63.094 C 226.802 63.144,230.959 63.082,231.226 62.860 C 231.517 62.619,231.576 61.596,231.519 57.792 L 231.447 53.026 215.979 52.958 C 203.533 52.904,200.486 52.957,200.381 53.230 M179.271 68.484 L 179.342 73.553 189.311 73.622 C 196.542 73.672,199.381 73.607,199.646 73.387 C 199.938 73.145,199.997 72.130,199.940 68.318 L 199.868 63.553 189.534 63.484 L 179.199 63.415 179.271 68.484 M158.276 74.282 C 158.204 74.470,158.178 76.751,158.217 79.351 L 158.289 84.079 168.259 84.148 C 175.490 84.198,178.328 84.134,178.593 83.914 C 178.886 83.671,178.945 82.657,178.887 78.845 L 178.816 74.079 168.611 74.010 C 160.450 73.955,158.381 74.009,158.276 74.282 M147.751 84.806 C 147.678 84.995,147.651 87.277,147.691 89.877 L 147.763 94.605 152.466 94.677 C 158.439 94.769,157.923 95.278,157.835 89.371 L 157.763 84.605 152.823 84.534 C 148.949 84.477,147.854 84.536,147.751 84.806 M137.225 95.332 C 137.152 95.521,137.125 97.803,137.165 100.404 L 137.237 105.132 141.939 105.204 C 147.913 105.295,147.397 105.805,147.308 99.897 L 147.237 95.132 142.297 95.060 C 138.423 95.004,137.328 95.063,137.225 95.332 M126.698 105.858 C 126.626 106.047,126.599 108.330,126.638 110.930 L 126.711 115.658 131.413 115.730 C 137.386 115.821,136.871 116.331,136.782 110.423 L 136.711 105.658 131.770 105.586 C 127.897 105.530,126.802 105.589,126.698 105.858 M357.946 115.855 C 357.974 115.891,358.063 118.230,358.143 121.053 L 358.289 126.184 363.355 126.256 C 366.141 126.295,368.444 126.354,368.472 126.387 C 368.501 126.420,368.590 128.757,368.670 131.579 L 368.816 136.711 373.882 136.782 C 376.668 136.821,378.970 136.881,378.999 136.914 C 379.027 136.947,379.116 139.283,379.196 142.105 L 379.342 147.237 384.330 147.309 C 387.917 147.360,389.376 147.471,389.524 147.703 C 389.826 148.179,389.783 209.783,389.480 210.263 C 389.278 210.583,388.293 210.683,384.286 210.789 L 379.342 210.921 379.211 221.097 C 379.138 226.693,378.981 231.371,378.860 231.492 C 378.740 231.612,376.431 231.770,373.729 231.842 L 368.816 231.974 368.684 236.887 C 368.612 239.589,368.454 241.898,368.334 242.018 C 368.213 242.139,363.536 242.296,357.939 242.368 L 347.763 242.500 347.632 247.444 C 347.525 251.451,347.425 252.436,347.105 252.638 C 346.427 253.066,200.657 252.975,200.301 252.546 C 200.121 252.328,199.985 250.381,199.940 247.349 L 199.868 242.500 194.947 242.368 C 192.116 242.293,189.910 242.122,189.755 241.967 C 189.597 241.808,189.456 239.699,189.414 236.835 L 189.342 231.974 184.474 231.842 C 181.796 231.770,179.457 231.615,179.276 231.498 C 178.808 231.194,178.795 200.784,179.263 200.316 C 179.485 200.094,180.959 200.000,184.211 200.000 C 189.965 200.000,189.474 200.491,189.474 194.737 C 189.474 188.983,188.983 189.474,194.737 189.474 C 200.491 189.474,200.000 189.965,200.000 184.211 C 200.000 180.959,200.094 179.485,200.316 179.263 C 200.550 179.029,203.181 178.947,210.526 178.947 C 217.871 178.947,220.502 178.866,220.737 178.632 C 220.959 178.410,221.053 176.936,221.053 173.684 C 221.053 170.433,221.147 168.959,221.368 168.737 C 221.603 168.502,224.234 168.421,231.579 168.421 C 238.924 168.421,241.555 168.340,241.789 168.105 C 242.011 167.884,242.105 166.409,242.105 163.158 C 242.105 157.404,241.614 157.895,247.368 157.895 C 253.122 157.895,252.632 158.386,252.632 152.632 C 252.632 149.380,252.726 147.906,252.947 147.684 C 253.182 147.450,255.813 147.368,263.158 147.368 C 270.503 147.368,273.134 147.287,273.368 147.053 C 273.590 146.831,273.684 145.357,273.684 142.105 C 273.684 138.854,273.778 137.380,274.000 137.158 C 274.234 136.923,276.865 136.842,284.211 136.842 C 291.556 136.842,294.187 136.761,294.421 136.526 C 294.643 136.305,294.737 134.830,294.737 131.579 C 294.737 128.327,294.831 126.853,295.053 126.632 C 295.287 126.397,297.918 126.316,305.263 126.316 C 312.608 126.316,315.239 126.234,315.474 126.000 C 315.695 125.778,315.789 124.304,315.789 121.053 C 315.789 117.801,315.884 116.327,316.105 116.105 C 316.378 115.833,357.735 115.586,357.946 115.855 M116.172 116.385 C 116.099 116.574,116.072 118.856,116.112 121.456 L 116.184 126.184 120.887 126.256 C 126.860 126.348,126.345 126.857,126.256 120.950 L 126.184 116.184 121.244 116.113 C 117.370 116.056,116.275 116.115,116.172 116.385 " stroke="none" fill="#4cf44c" fill-rule="evenodd"></path><path id="path1" d="M147.670 10.875 C 147.489 11.093,147.354 13.040,147.309 16.072 L 147.237 20.921 131.866 20.989 C 121.047 21.037,116.392 21.144,116.143 21.350 C 115.872 21.575,115.789 22.724,115.789 26.295 C 115.789 32.073,116.282 31.579,110.526 31.579 C 104.772 31.579,105.263 31.088,105.263 36.842 C 105.263 42.596,105.754 42.105,100.000 42.105 C 94.246 42.105,94.737 41.614,94.737 47.368 C 94.737 53.122,95.228 52.632,89.474 52.632 C 86.222 52.632,84.748 52.726,84.526 52.947 C 84.292 53.182,84.211 55.813,84.211 63.158 C 84.211 70.503,84.129 73.134,83.895 73.368 C 83.673 73.590,82.199 73.684,78.947 73.684 C 75.696 73.684,74.222 73.778,74.000 74.000 C 73.766 74.234,73.684 76.865,73.684 84.211 C 73.684 91.556,73.603 94.187,73.368 94.421 C 73.147 94.643,71.673 94.737,68.421 94.737 C 62.658 94.737,63.158 94.223,63.158 100.152 C 63.158 106.020,62.623 105.496,68.704 105.586 L 73.553 105.658 73.553 110.658 L 73.553 115.658 58.182 115.726 C 47.363 115.774,42.707 115.881,42.459 116.087 C 42.187 116.312,42.105 117.460,42.105 121.032 C 42.105 126.810,42.597 126.316,36.842 126.316 C 31.088 126.316,31.579 125.825,31.579 131.579 C 31.579 137.333,32.070 136.842,26.316 136.842 C 23.064 136.842,21.590 136.936,21.368 137.158 C 21.130 137.396,21.053 141.193,21.053 152.632 C 21.053 164.070,20.975 167.867,20.737 168.105 C 20.515 168.327,19.041 168.421,15.789 168.421 C 12.538 168.421,11.064 168.515,10.842 168.737 C 10.357 169.222,10.389 199.558,10.875 199.962 C 11.093 200.143,13.040 200.278,16.072 200.323 L 20.921 200.395 20.990 210.503 C 21.037 217.329,21.152 220.724,21.346 220.958 C 21.561 221.217,22.876 221.322,26.541 221.376 L 31.447 221.447 31.519 226.354 C 31.606 232.351,31.061 231.812,37.125 231.902 L 41.974 231.974 42.045 236.880 C 42.133 242.877,41.588 242.338,47.651 242.428 L 52.500 242.500 52.572 247.488 C 52.623 251.075,52.734 252.534,52.967 252.682 C 53.767 253.190,178.312 252.925,178.775 252.413 C 179.356 251.771,179.434 242.881,178.862 242.407 C 178.644 242.226,176.697 242.091,173.665 242.046 L 168.816 241.974 168.744 237.067 C 168.657 231.070,169.202 231.609,163.138 231.519 L 158.289 231.447 158.218 226.541 C 158.131 220.544,158.675 221.083,152.612 220.993 L 147.763 220.921 147.692 216.014 C 147.604 210.017,148.149 210.557,142.086 210.467 L 137.237 210.395 137.168 200.286 C 137.121 193.461,137.006 190.065,136.811 189.831 C 136.597 189.573,135.282 189.467,131.617 189.414 L 126.711 189.342 126.642 179.234 C 126.595 172.408,126.479 169.013,126.285 168.779 C 126.070 168.520,124.756 168.414,121.091 168.361 L 116.184 168.289 116.115 158.181 C 116.069 151.356,115.953 147.960,115.759 147.726 C 115.544 147.467,114.230 147.362,110.565 147.308 L 105.658 147.237 105.586 142.330 C 105.533 138.665,105.427 137.351,105.169 137.136 C 104.935 136.942,101.539 136.826,94.714 136.779 L 84.605 136.711 84.534 131.804 C 84.446 125.807,84.991 126.346,78.928 126.256 L 74.079 126.184 74.007 121.115 L 73.936 116.047 84.271 116.115 L 94.605 116.184 94.677 121.091 C 94.730 124.756,94.836 126.070,95.095 126.285 C 95.329 126.479,98.724 126.595,105.549 126.642 L 115.658 126.711 115.729 131.617 C 115.817 137.614,115.272 137.075,121.335 137.165 L 126.184 137.237 126.253 147.345 C 126.300 154.171,126.415 157.566,126.610 157.800 C 126.824 158.059,128.139 158.165,131.804 158.218 L 136.711 158.289 136.779 168.398 C 136.826 175.223,136.942 178.619,137.136 178.853 C 137.351 179.111,138.665 179.217,142.330 179.271 L 147.237 179.342 147.306 189.451 C 147.352 196.276,147.468 199.671,147.662 199.905 C 147.877 200.164,149.191 200.270,152.856 200.323 L 157.763 200.395 157.835 205.244 C 157.925 211.317,157.420 210.789,163.149 210.789 C 169.337 210.789,168.662 212.108,168.747 199.851 L 168.816 189.868 173.583 189.797 C 179.671 189.705,179.176 190.204,179.270 184.065 L 179.342 179.342 184.109 179.271 C 190.197 179.179,189.703 179.678,189.796 173.539 L 189.868 168.816 199.851 168.747 C 212.092 168.662,210.755 169.354,210.849 163.057 L 210.921 158.289 220.904 158.220 C 233.145 158.136,231.808 158.828,231.902 152.530 L 231.974 147.763 236.697 147.691 C 242.836 147.597,242.337 148.092,242.428 142.004 L 242.500 137.237 252.483 137.168 C 264.724 137.083,263.386 137.775,263.481 131.478 L 263.553 126.711 273.535 126.642 C 285.776 126.557,284.439 127.249,284.534 120.951 L 284.605 116.184 294.588 116.115 C 306.829 116.031,305.492 116.722,305.586 110.425 L 305.658 105.658 315.641 105.589 C 324.468 105.528,325.679 105.470,326.101 105.088 C 326.729 104.519,326.851 85.027,326.230 84.512 C 326.012 84.331,324.066 84.196,321.033 84.151 L 316.184 84.079 316.045 73.684 C 315.968 67.967,315.880 63.261,315.848 63.226 C 315.816 63.191,308.773 63.132,300.197 63.094 L 284.605 63.026 284.534 58.120 C 284.480 54.438,284.375 53.141,284.114 52.924 C 283.867 52.719,276.218 52.615,257.869 52.567 L 231.974 52.500 231.834 42.105 C 231.758 36.388,231.669 31.682,231.637 31.648 C 231.605 31.613,226.931 31.554,221.250 31.516 L 210.921 31.447 210.850 26.541 C 210.796 22.866,210.691 21.561,210.430 21.345 C 210.189 21.145,205.379 21.036,194.712 20.989 L 179.342 20.921 179.270 16.072 C 179.225 13.040,179.090 11.093,178.909 10.875 C 178.482 10.360,148.097 10.360,147.670 10.875 M157.763 26.447 L 157.763 31.447 152.763 31.447 L 147.763 31.447 147.692 26.376 L 147.620 21.304 152.692 21.376 L 157.763 21.447 157.763 26.447 M168.289 42.237 L 168.289 52.500 163.289 52.500 L 158.289 52.500 158.221 42.165 L 158.152 31.831 163.221 31.902 L 168.289 31.974 168.289 42.237 M178.816 58.026 L 178.816 63.026 173.816 63.026 L 168.816 63.026 168.744 57.955 L 168.673 52.883 173.744 52.955 L 178.816 53.026 178.816 58.026 M231.519 57.792 C 231.576 61.596,231.517 62.619,231.226 62.860 C 230.959 63.082,226.802 63.144,215.628 63.094 L 200.395 63.026 200.323 58.298 C 200.283 55.698,200.309 53.417,200.381 53.230 C 200.486 52.957,203.533 52.904,215.979 52.958 L 231.447 53.026 231.519 57.792 M199.940 68.318 C 199.997 72.130,199.938 73.145,199.646 73.387 C 199.381 73.607,196.542 73.672,189.311 73.622 L 179.342 73.553 179.271 68.484 L 179.199 63.415 189.534 63.484 L 199.868 63.553 199.940 68.318 M178.887 78.845 C 178.945 82.657,178.886 83.671,178.593 83.914 C 178.328 84.134,175.490 84.198,168.259 84.148 L 158.289 84.079 158.217 79.351 C 158.178 76.751,158.204 74.470,158.276 74.282 C 158.381 74.009,160.450 73.955,168.611 74.010 L 178.816 74.079 178.887 78.845 M157.835 89.371 C 157.923 95.278,158.439 94.769,152.466 94.677 L 147.763 94.605 147.691 89.877 C 147.651 87.277,147.678 84.995,147.751 84.806 C 147.854 84.536,148.949 84.477,152.823 84.534 L 157.763 84.605 157.835 89.371 M147.308 99.897 C 147.397 105.805,147.913 105.295,141.939 105.204 L 137.237 105.132 137.165 100.404 C 137.125 97.803,137.152 95.521,137.225 95.332 C 137.328 95.063,138.423 95.004,142.297 95.060 L 147.237 95.132 147.308 99.897 M136.782 110.423 C 136.871 116.331,137.386 115.821,131.413 115.730 L 126.711 115.658 126.638 110.930 C 126.599 108.330,126.626 106.047,126.698 105.858 C 126.802 105.589,127.897 105.530,131.770 105.586 L 136.711 105.658 136.782 110.423 M316.105 116.105 C 315.884 116.327,315.789 117.801,315.789 121.053 C 315.789 124.304,315.695 125.778,315.474 126.000 C 315.239 126.234,312.608 126.316,305.263 126.316 C 297.918 126.316,295.287 126.397,295.053 126.632 C 294.831 126.853,294.737 128.327,294.737 131.579 C 294.737 134.830,294.643 136.305,294.421 136.526 C 294.187 136.761,291.556 136.842,284.211 136.842 C 276.865 136.842,274.234 136.923,274.000 137.158 C 273.778 137.380,273.684 138.854,273.684 142.105 C 273.684 145.357,273.590 146.831,273.368 147.053 C 273.134 147.287,270.503 147.368,263.158 147.368 C 255.813 147.368,253.182 147.450,252.947 147.684 C 252.726 147.906,252.632 149.380,252.632 152.632 C 252.632 158.386,253.122 157.895,247.368 157.895 C 241.614 157.895,242.105 157.404,242.105 163.158 C 242.105 166.409,242.011 167.884,241.789 168.105 C 241.555 168.340,238.924 168.421,231.579 168.421 C 224.234 168.421,221.603 168.502,221.368 168.737 C 221.147 168.959,221.053 170.433,221.053 173.684 C 221.053 176.936,220.959 178.410,220.737 178.632 C 220.502 178.866,217.871 178.947,210.526 178.947 C 203.181 178.947,200.550 179.029,200.316 179.263 C 200.094 179.485,200.000 180.959,200.000 184.211 C 200.000 189.965,200.491 189.474,194.737 189.474 C 188.983 189.474,189.474 188.983,189.474 194.737 C 189.474 200.491,189.965 200.000,184.211 200.000 C 180.959 200.000,179.485 200.094,179.263 200.316 C 178.795 200.784,178.808 231.194,179.276 231.498 C 179.457 231.615,181.796 231.770,184.474 231.842 L 189.342 231.974 189.414 236.835 C 189.456 239.699,189.597 241.808,189.755 241.967 C 189.910 242.122,192.116 242.293,194.947 242.368 L 199.868 242.500 199.940 247.349 C 199.985 250.381,200.121 252.328,200.301 252.546 C 200.657 252.975,346.427 253.066,347.105 252.638 C 347.425 252.436,347.525 251.451,347.632 247.444 L 347.763 242.500 357.939 242.368 C 363.536 242.296,368.213 242.139,368.334 242.018 C 368.454 241.898,368.612 239.589,368.684 236.887 L 368.816 231.974 373.729 231.842 C 376.431 231.770,378.740 231.612,378.860 231.492 C 378.981 231.371,379.138 226.693,379.211 221.097 L 379.342 210.921 384.286 210.789 C 388.293 210.683,389.278 210.583,389.480 210.263 C 389.783 209.783,389.826 148.179,389.524 147.703 C 389.376 147.471,387.917 147.360,384.330 147.309 L 379.342 147.237 379.196 142.105 C 379.116 139.283,379.027 136.947,378.999 136.914 C 378.970 136.881,376.668 136.821,373.882 136.782 L 368.816 136.711 368.670 131.579 C 368.590 128.757,368.501 126.420,368.472 126.387 C 368.444 126.354,366.141 126.295,363.355 126.256 L 358.289 126.184 358.143 121.053 C 358.063 118.230,357.974 115.891,357.946 115.855 C 357.735 115.586,316.378 115.833,316.105 116.105 M126.256 120.950 C 126.345 126.857,126.860 126.348,120.887 126.256 L 116.184 126.184 116.112 121.456 C 116.072 118.856,116.099 116.574,116.172 116.385 C 116.275 116.115,117.370 116.056,121.244 116.113 L 126.184 116.184 126.256 120.950 " stroke="none" fill="#24cc24" fill-rule="evenodd"></path></g></svg>